G04*
G04 #@! TF.GenerationSoftware,Altium Limited,Altium Designer,25.2.1 (25)*
G04*
G04 Layer_Physical_Order=1*
G04 Layer_Color=255*
%FSLAX25Y25*%
%MOIN*%
G70*
G04*
G04 #@! TF.SameCoordinates,99A0EC09-0DB1-4406-8349-B672291F68DE*
G04*
G04*
G04 #@! TF.FilePolarity,Positive*
G04*
G01*
G75*
%ADD10C,0.02000*%
%ADD12C,0.01500*%
%ADD14C,0.01000*%
%ADD19R,0.07100X0.04400*%
%ADD20R,0.10433X0.02362*%
%ADD21R,0.03300X0.06693*%
%ADD22R,0.12200X0.06693*%
%ADD23R,0.04400X0.07100*%
%ADD24R,0.13386X0.02362*%
%ADD38C,0.06378*%
%ADD39C,0.07000*%
%ADD40O,0.07874X0.14961*%
%ADD41O,0.12992X0.07087*%
%ADD42C,0.06496*%
%ADD43C,0.02500*%
D10*
X95000Y27000D02*
X101000Y21000D01*
X95000Y27000D02*
Y55000D01*
X96172Y70000D02*
X106000D01*
X95000Y55000D02*
X106165D01*
X95000D02*
Y68828D01*
X96172Y70000D01*
X101000Y21000D02*
X118000D01*
X80000Y176000D02*
Y190000D01*
X11000Y177000D02*
X16000Y172000D01*
X76000D02*
X80000Y176000D01*
X16000Y172000D02*
X76000D01*
X11000Y177000D02*
Y234000D01*
X14500Y237500D01*
X30000D01*
X105000Y195000D02*
Y206102D01*
X77500Y210000D02*
X84705Y217205D01*
X30000Y237500D02*
X65000D01*
X25000Y225000D02*
Y232500D01*
X30000Y237500D01*
X45000Y210000D02*
X77500D01*
X92000Y169000D02*
X239000D01*
X90000Y171000D02*
X92000Y169000D01*
X239000D02*
X275000Y133000D01*
X191000Y288000D02*
X225630Y253370D01*
X76622Y288000D02*
X191000D01*
X63289Y274667D02*
X76622Y288000D01*
X275000Y125000D02*
Y133000D01*
X225630Y248000D02*
X259000D01*
X267000Y240000D01*
Y220000D02*
Y240000D01*
X260000Y213000D02*
X267000Y220000D01*
X260000Y205900D02*
Y213000D01*
X225630Y248000D02*
Y253370D01*
X225449Y227319D02*
X225630Y227500D01*
X219746Y227319D02*
X225449D01*
X215707Y223280D02*
X219746Y227319D01*
X215707Y218135D02*
Y223280D01*
X211668Y214095D02*
X215707Y218135D01*
X211477Y214095D02*
X211668D01*
X209882Y212500D02*
X211477Y214095D01*
X204370Y212500D02*
X209882D01*
X225630Y227500D02*
X239100D01*
X225630D02*
Y248000D01*
X61335Y274667D02*
X63289D01*
X58622Y271954D02*
X61335Y274667D01*
X58622Y270000D02*
Y271954D01*
Y270000D02*
X72324D01*
X90000Y171000D02*
Y190000D01*
X100000Y125000D02*
Y140000D01*
X90000Y150000D02*
X100000Y140000D01*
X90000Y150000D02*
Y171000D01*
X105000Y95000D02*
X106000Y94000D01*
Y70000D02*
Y94000D01*
X100900Y95000D02*
X105000D01*
X110000Y100000D01*
Y125000D01*
X271172Y55000D02*
X281165D01*
X270000Y56172D02*
X271172Y55000D01*
X270000Y56172D02*
Y67000D01*
X273000Y70000D01*
X281000D01*
Y96000D02*
X285000Y100000D01*
X281050Y70050D02*
X293950D01*
X281000Y70000D02*
X281050Y70050D01*
X281000Y70000D02*
Y96000D01*
X280000Y95000D02*
X281000Y96000D01*
X275900Y95000D02*
X280000D01*
X285000Y100000D02*
Y125000D01*
X303950Y81950D02*
X304000Y82000D01*
X294050Y81950D02*
X303950D01*
X294000Y82000D02*
X294050Y81950D01*
X293950Y70050D02*
X294000Y70100D01*
X150900Y200900D02*
X160000D01*
X72510Y243779D02*
X95900D01*
X105102Y206000D02*
X123550D01*
X128650Y200900D01*
X105000Y206102D02*
Y217205D01*
X139100Y189100D02*
X150900Y200900D01*
X130000Y189100D02*
X139100D01*
X135000Y257500D02*
Y264100D01*
X95000Y257500D02*
Y264100D01*
X122500Y235000D02*
X130000D01*
X117500Y230000D02*
X122500Y235000D01*
X105000Y230000D02*
X117500D01*
X105000D02*
Y242795D01*
X84705Y217205D02*
X105000D01*
X25000Y190000D02*
X45000Y210000D01*
X105000Y217205D02*
Y230000D01*
X67500Y248789D02*
X72510Y243779D01*
X67500Y248789D02*
Y257579D01*
X65000Y237500D02*
X67500Y240000D01*
Y248789D01*
X58622Y266457D02*
X67500Y257579D01*
X78224Y275900D02*
X95000D01*
X72324Y270000D02*
X78224Y275900D01*
X120000Y265000D02*
X130536Y275536D01*
X134636D01*
X115900Y265000D02*
X120000D01*
X95000Y275900D02*
X115000D01*
D12*
X105000Y206102D02*
X105102Y206000D01*
X128650Y200900D02*
X130000D01*
X100000Y190000D02*
X105000Y195000D01*
D14*
X100000Y153000D02*
X167500D01*
X180000Y140500D01*
X185500D01*
X194000Y132000D01*
X122000Y65000D02*
X125000Y68000D01*
X106165Y65000D02*
X122000D01*
X133000Y72000D02*
X181000D01*
X99000Y45000D02*
X106165D01*
X68000Y50000D02*
X91750D01*
X56000Y18000D02*
X65000Y9000D01*
X117700D01*
X56000Y18000D02*
X61000D01*
X7586D02*
X56000D01*
X180000Y152000D02*
Y164000D01*
Y174000D02*
Y195000D01*
X266000Y53130D02*
Y58414D01*
X264414Y60000D02*
X266000Y58414D01*
X262870Y50000D02*
X266000Y53130D01*
X258835Y50000D02*
X262870D01*
X258835Y60000D02*
X264414D01*
X262870Y50000D02*
X268000D01*
X258835Y60000D02*
X259516Y60681D01*
X265095D01*
X266000Y61586D01*
Y69000D01*
X265000Y70000D02*
X266000Y69000D01*
X258835Y70000D02*
X265000D01*
X235000Y182000D02*
X273000D01*
X66000Y58000D02*
Y63000D01*
X69000Y60000D02*
X83835D01*
X66000Y63000D02*
X69000Y60000D01*
X180000Y195000D02*
X190000Y205000D01*
X192500Y227500D02*
X204370D01*
X204000Y222000D02*
X204370Y222370D01*
X187500Y222500D02*
X204370D01*
X186000Y207000D02*
Y221000D01*
X204370Y222370D02*
Y222500D01*
X186000Y221000D02*
X187500Y222500D01*
X235500D02*
X238000Y220000D01*
X225630Y222500D02*
X235500D01*
X238000Y196000D02*
Y220000D01*
X234414Y207000D02*
X235000Y207586D01*
X233829Y217500D02*
X235000Y216329D01*
X194000Y207000D02*
X232000D01*
Y185000D02*
Y207000D01*
X235000Y207586D02*
Y216329D01*
X232000Y207000D02*
X234414D01*
X225630Y217500D02*
X233829D01*
X193086D02*
X204370D01*
X190000Y214414D02*
X193086Y217500D01*
X190000Y205000D02*
Y214414D01*
X232000Y185000D02*
X235000Y182000D01*
X273000D02*
X280000Y189000D01*
Y194100D01*
X190000Y196000D02*
X192000Y194000D01*
Y185000D02*
Y194000D01*
X190000Y196000D02*
Y205000D01*
X81000Y118000D02*
X89100Y109900D01*
X81000Y118000D02*
Y153000D01*
X89100Y95000D02*
Y109900D01*
X129000Y66000D02*
Y85000D01*
X139000Y95000D01*
X123000Y60000D02*
X129000Y66000D01*
X7000Y18586D02*
Y30586D01*
Y18586D02*
X7586Y18000D01*
X61000D02*
X62000Y19000D01*
Y26000D01*
X76000Y40000D02*
X83835D01*
X62000Y26000D02*
X76000Y40000D01*
X150000Y25000D02*
X160000D01*
X150000Y60000D02*
X160000D01*
X150000Y95000D02*
X160000D01*
X66000Y52000D02*
X68000Y50000D01*
X66000Y80000D02*
Y86000D01*
X69000Y89000D01*
X72000D01*
Y93000D01*
X7000Y125000D02*
X15000D01*
X29000Y111000D01*
X30000D01*
Y110000D02*
Y111000D01*
X7000Y125000D02*
Y144000D01*
X40000Y110000D02*
X50000D01*
X30000D02*
X40000D01*
X7000Y80586D02*
Y125000D01*
Y30586D02*
Y56000D01*
Y30586D02*
X7586Y30000D01*
X19100D01*
X7000Y56000D02*
Y80586D01*
Y56000D02*
X8000Y55000D01*
X19100D01*
X7000Y144000D02*
X12000Y149000D01*
X7000Y80586D02*
X7586Y80000D01*
X19100D01*
X20000Y100000D02*
Y110000D01*
Y100000D02*
X30900Y89100D01*
Y80000D02*
Y89100D01*
Y30000D02*
X44100D01*
X30900Y55000D02*
X44100D01*
X30900Y80000D02*
X44100D01*
X100000Y95000D02*
X100900D01*
X55900Y30000D02*
X61000D01*
X76000Y45000D01*
X83835D01*
X55900Y55000D02*
X83835D01*
X72000Y73000D02*
Y89000D01*
Y73000D02*
X75000Y70000D01*
X83835D01*
X72000Y93000D02*
X74000Y95000D01*
X59014Y79986D02*
X74000Y65000D01*
X83835D01*
X55900Y80000D02*
X55914Y79986D01*
X59014D01*
X74000Y95000D02*
X89100D01*
X139000D02*
X140000D01*
X107681Y60000D02*
X123000D01*
X107000Y60681D02*
X107681Y60000D01*
X106319D02*
X107000Y60681D01*
X106165Y60000D02*
X106319D01*
X106165Y50000D02*
X124000D01*
X134000Y60000D02*
X140000D01*
X124000Y50000D02*
X134000Y60000D01*
X315000Y85000D02*
X325000Y95000D01*
X315000Y67586D02*
Y85000D01*
X307414Y60000D02*
X315000Y67586D01*
X310000Y40000D02*
X325000Y25000D01*
X281165Y40000D02*
X310000D01*
X125000D02*
X140000Y25000D01*
X106165Y40000D02*
X125000D01*
X194000Y132000D02*
X244000D01*
X264100Y111900D01*
Y95000D02*
Y111900D01*
X268000Y50000D02*
X273000Y45000D01*
X281165D01*
X249000Y65000D02*
X258835D01*
X230900Y80000D02*
X230914Y79986D01*
X234014D02*
X249000Y65000D01*
X230914Y79986D02*
X234014D01*
X250586Y70000D02*
X258835D01*
X248000Y72586D02*
X250586Y70000D01*
X248000Y72586D02*
Y94000D01*
X249000Y95000D01*
X264100D01*
X260000Y194100D02*
X266100D01*
X239900D02*
X260000D01*
X238000Y196000D02*
X239900Y194100D01*
X266100D02*
X270000Y198000D01*
Y201800D01*
X274100Y205900D01*
X280000D01*
X195000Y99000D02*
X206000Y88000D01*
Y80100D02*
Y88000D01*
X195000Y99000D02*
Y110000D01*
X205900Y80000D02*
X206000Y80100D01*
X248000Y36000D02*
X252000Y40000D01*
X258835D01*
X300594Y65000D02*
X303594Y68000D01*
X304000D01*
X281165Y65000D02*
X300594D01*
X318000Y60000D02*
X325000D01*
X308000Y50000D02*
X318000Y60000D01*
X281165Y50000D02*
X308000D01*
X281165Y60000D02*
X307414D01*
X294000Y81900D02*
Y82000D01*
X290000Y197500D02*
Y202500D01*
X293400Y205900D01*
X286600Y194100D02*
X290000Y197500D01*
X280000Y194100D02*
X286600D01*
X293400Y205900D02*
X300000D01*
Y187500D02*
Y194100D01*
X185000Y30000D02*
X194100D01*
X185000Y55000D02*
X194100D01*
X185000Y80000D02*
X194100D01*
X205900Y30000D02*
X219100D01*
X205900Y55000D02*
X219100D01*
X205900Y80000D02*
X219100D01*
X230900Y30000D02*
X235000D01*
X250000Y45000D01*
X258835D01*
X230900Y55000D02*
X258835D01*
X250900Y227500D02*
X257500D01*
X160000Y182500D02*
Y189100D01*
X137500Y227500D02*
Y232500D01*
X130000Y225000D02*
X135000D01*
X144636Y235536D02*
X145000Y235900D01*
X135000Y225000D02*
X137500Y227500D01*
Y232500D02*
X140536Y235536D01*
X144636D01*
X145000Y217500D02*
Y224100D01*
X114000Y244000D02*
Y250000D01*
Y244000D02*
X114100Y243900D01*
Y242795D02*
Y243900D01*
X115000Y264100D02*
X115900Y265000D01*
X134636Y275536D02*
X135000Y275900D01*
D19*
X118000Y21000D02*
D03*
Y9200D02*
D03*
X294000Y81900D02*
D03*
Y70100D02*
D03*
X95000Y264100D02*
D03*
Y275900D02*
D03*
X115000Y264100D02*
D03*
Y275900D02*
D03*
X135000D02*
D03*
Y264100D02*
D03*
X280000Y205900D02*
D03*
Y194100D02*
D03*
X260000Y205900D02*
D03*
Y194100D02*
D03*
X130000Y189100D02*
D03*
Y200900D02*
D03*
X160000D02*
D03*
Y189100D02*
D03*
X145000Y224100D02*
D03*
Y235900D02*
D03*
X300000Y194100D02*
D03*
Y205900D02*
D03*
D20*
X281000Y70000D02*
D03*
X281165Y65000D02*
D03*
Y60000D02*
D03*
Y55000D02*
D03*
Y50000D02*
D03*
Y45000D02*
D03*
Y40000D02*
D03*
X258835D02*
D03*
Y45000D02*
D03*
Y50000D02*
D03*
Y55000D02*
D03*
Y60000D02*
D03*
Y65000D02*
D03*
Y70000D02*
D03*
X106000D02*
D03*
X106165Y65000D02*
D03*
Y60000D02*
D03*
Y55000D02*
D03*
Y50000D02*
D03*
Y45000D02*
D03*
Y40000D02*
D03*
X83835D02*
D03*
Y45000D02*
D03*
Y50000D02*
D03*
Y55000D02*
D03*
Y60000D02*
D03*
Y65000D02*
D03*
Y70000D02*
D03*
D21*
X95900Y243779D02*
D03*
X105000Y242795D02*
D03*
X114100D02*
D03*
D22*
X105000Y217205D02*
D03*
D23*
X219100Y30000D02*
D03*
X230900D02*
D03*
X44100D02*
D03*
X55900D02*
D03*
X205900D02*
D03*
X194100D02*
D03*
X30900D02*
D03*
X19100D02*
D03*
X205900Y55000D02*
D03*
X194100D02*
D03*
X219100D02*
D03*
X230900D02*
D03*
X100900Y95000D02*
D03*
X89100D02*
D03*
X44100Y80000D02*
D03*
X55900D02*
D03*
X44100Y55000D02*
D03*
X55900D02*
D03*
X30900Y80000D02*
D03*
X19100D02*
D03*
X30900Y55000D02*
D03*
X19100D02*
D03*
X205900Y80000D02*
D03*
X194100D02*
D03*
X219100D02*
D03*
X230900D02*
D03*
X275900Y95000D02*
D03*
X264100D02*
D03*
X250900Y227500D02*
D03*
X239100D02*
D03*
D24*
X225630D02*
D03*
Y222500D02*
D03*
Y217500D02*
D03*
Y212500D02*
D03*
X204370D02*
D03*
Y217500D02*
D03*
Y222500D02*
D03*
Y227500D02*
D03*
D38*
X180000Y140500D02*
D03*
Y150500D02*
D03*
X130000Y235000D02*
D03*
Y225000D02*
D03*
X275000Y125000D02*
D03*
X285000D02*
D03*
X100000D02*
D03*
X110000D02*
D03*
D39*
X335000Y60000D02*
D03*
X325000D02*
D03*
X355000D02*
D03*
X345000D02*
D03*
X335000Y95000D02*
D03*
X325000D02*
D03*
X355000D02*
D03*
X345000D02*
D03*
X335000Y25000D02*
D03*
X325000D02*
D03*
X355000D02*
D03*
X345000D02*
D03*
X205000Y110000D02*
D03*
X195000D02*
D03*
X225000D02*
D03*
X215000D02*
D03*
X35000Y190000D02*
D03*
X25000D02*
D03*
X55000D02*
D03*
X45000D02*
D03*
X35000Y225000D02*
D03*
X25000D02*
D03*
X55000D02*
D03*
X45000D02*
D03*
X202000Y185000D02*
D03*
X192000D02*
D03*
X222000D02*
D03*
X212000D02*
D03*
X30000Y110000D02*
D03*
X20000D02*
D03*
X50000D02*
D03*
X40000D02*
D03*
X150000Y95000D02*
D03*
X140000D02*
D03*
X170000D02*
D03*
X160000D02*
D03*
X150000Y60000D02*
D03*
X140000D02*
D03*
X170000D02*
D03*
X160000D02*
D03*
X150000Y25000D02*
D03*
X140000D02*
D03*
X170000D02*
D03*
X160000D02*
D03*
D40*
X58622Y270000D02*
D03*
X35000D02*
D03*
D41*
X48779Y251693D02*
D03*
D42*
X100000Y190000D02*
D03*
X90000D02*
D03*
X80000D02*
D03*
D43*
X125000Y68000D02*
D03*
X181000Y72000D02*
D03*
X133000D02*
D03*
X99000Y45000D02*
D03*
X91750Y50000D02*
D03*
X180000Y164000D02*
D03*
Y174000D02*
D03*
X66000Y63000D02*
D03*
X192500Y227500D02*
D03*
X194000Y207000D02*
D03*
X186000D02*
D03*
X81000Y153000D02*
D03*
X100000D02*
D03*
X66000Y52000D02*
D03*
Y58000D02*
D03*
Y80000D02*
D03*
X12000Y149000D02*
D03*
X248000Y36000D02*
D03*
X304000Y68000D02*
D03*
Y82000D02*
D03*
X300000Y187500D02*
D03*
X185000Y30000D02*
D03*
Y55000D02*
D03*
Y80000D02*
D03*
X257500Y227500D02*
D03*
X160000Y182500D02*
D03*
X135000Y257500D02*
D03*
X95000D02*
D03*
X145000Y217500D02*
D03*
X114000Y250000D02*
D03*
M02*
