G04*
G04 #@! TF.GenerationSoftware,Altium Limited,Altium Designer,25.2.1 (25)*
G04*
G04 Layer_Physical_Order=2*
G04 Layer_Color=16711680*
%FSLAX25Y25*%
%MOIN*%
G70*
G04*
G04 #@! TF.SameCoordinates,99A0EC09-0DB1-4406-8349-B672291F68DE*
G04*
G04*
G04 #@! TF.FilePolarity,Positive*
G04*
G01*
G75*
%ADD14C,0.01000*%
%ADD38C,0.06378*%
%ADD39C,0.07000*%
%ADD40O,0.07874X0.14961*%
%ADD41O,0.12992X0.07087*%
%ADD42C,0.06496*%
%ADD43C,0.02500*%
G36*
X377961Y2039D02*
X160000D01*
Y20500D01*
X160592D01*
X161737Y20807D01*
X162763Y21399D01*
X163601Y22237D01*
X164193Y23263D01*
X164500Y24408D01*
Y24500D01*
X160000D01*
Y25500D01*
X164500D01*
Y25592D01*
X164193Y26737D01*
X163601Y27763D01*
X162763Y28601D01*
X161737Y29193D01*
X160592Y29500D01*
X160000D01*
Y55500D01*
X160592D01*
X161737Y55807D01*
X162763Y56399D01*
X163601Y57237D01*
X164193Y58263D01*
X164500Y59408D01*
Y59500D01*
X160000D01*
Y60500D01*
X164500D01*
Y60592D01*
X164193Y61737D01*
X163601Y62763D01*
X162763Y63601D01*
X161737Y64193D01*
X160592Y64500D01*
X160000D01*
Y90500D01*
X160592D01*
X161737Y90807D01*
X162763Y91399D01*
X163601Y92237D01*
X164193Y93263D01*
X164500Y94408D01*
Y94500D01*
X160000D01*
Y95500D01*
X164500D01*
Y95592D01*
X164193Y96737D01*
X163601Y97763D01*
X162763Y98601D01*
X161737Y99193D01*
X160592Y99500D01*
X160000D01*
Y105000D01*
X115000Y140000D01*
X2039D01*
Y297961D01*
X377961D01*
Y2039D01*
D02*
G37*
%LPC*%
G36*
X35500Y278457D02*
Y270500D01*
X39980D01*
Y273543D01*
X39810Y274832D01*
X39312Y276033D01*
X38521Y277064D01*
X37490Y277856D01*
X36289Y278353D01*
X35500Y278457D01*
D02*
G37*
G36*
X34500D02*
X33711Y278353D01*
X32510Y277856D01*
X31479Y277064D01*
X30687Y276033D01*
X30190Y274832D01*
X30020Y273543D01*
Y270500D01*
X34500D01*
Y278457D01*
D02*
G37*
G36*
X39980Y269500D02*
X35500D01*
Y261543D01*
X36289Y261647D01*
X37490Y262144D01*
X38521Y262936D01*
X39312Y263967D01*
X39810Y265168D01*
X39980Y266457D01*
Y269500D01*
D02*
G37*
G36*
X34500D02*
X30020D01*
Y266457D01*
X30190Y265168D01*
X30687Y263967D01*
X31479Y262936D01*
X32510Y262144D01*
X33711Y261647D01*
X34500Y261543D01*
Y269500D01*
D02*
G37*
G36*
X58622Y278523D02*
X57333Y278353D01*
X56132Y277856D01*
X55101Y277064D01*
X54310Y276033D01*
X53812Y274832D01*
X53642Y273543D01*
Y266457D01*
X53812Y265168D01*
X54310Y263967D01*
X55101Y262936D01*
X56132Y262144D01*
X57333Y261647D01*
X58622Y261477D01*
X59911Y261647D01*
X61112Y262144D01*
X62143Y262936D01*
X62934Y263967D01*
X63432Y265168D01*
X63602Y266457D01*
Y273543D01*
X63432Y274832D01*
X62934Y276033D01*
X62143Y277064D01*
X61112Y277856D01*
X59911Y278353D01*
X58622Y278523D01*
D02*
G37*
G36*
X51732Y256275D02*
X49279D01*
Y252193D01*
X56249D01*
X56159Y252879D01*
X55701Y253984D01*
X54973Y254933D01*
X54023Y255662D01*
X52918Y256119D01*
X51732Y256275D01*
D02*
G37*
G36*
X48280D02*
X45827D01*
X44641Y256119D01*
X43536Y255662D01*
X42586Y254933D01*
X41858Y253984D01*
X41400Y252879D01*
X41310Y252193D01*
X48280D01*
Y256275D01*
D02*
G37*
G36*
X56249Y251193D02*
X49279D01*
Y247110D01*
X51732D01*
X52918Y247267D01*
X54023Y247724D01*
X54973Y248453D01*
X55701Y249402D01*
X56159Y250507D01*
X56249Y251193D01*
D02*
G37*
G36*
X48280D02*
X41310D01*
X41400Y250507D01*
X41858Y249402D01*
X42586Y248453D01*
X43536Y247724D01*
X44641Y247267D01*
X45827Y247110D01*
X48280D01*
Y251193D01*
D02*
G37*
G36*
X130552Y239189D02*
X129448D01*
X128383Y238903D01*
X127428Y238352D01*
X126648Y237572D01*
X126096Y236617D01*
X125811Y235552D01*
Y234449D01*
X126096Y233383D01*
X126648Y232428D01*
X127428Y231648D01*
X128383Y231097D01*
X129448Y230811D01*
X130552D01*
X131617Y231097D01*
X132572Y231648D01*
X133352Y232428D01*
X133904Y233383D01*
X134189Y234449D01*
Y235552D01*
X133904Y236617D01*
X133352Y237572D01*
X132572Y238352D01*
X131617Y238903D01*
X130552Y239189D01*
D02*
G37*
G36*
X55592Y229500D02*
X55500D01*
Y225500D01*
X59500D01*
Y225592D01*
X59193Y226737D01*
X58601Y227763D01*
X57763Y228601D01*
X56737Y229193D01*
X55592Y229500D01*
D02*
G37*
G36*
X54500D02*
X54408D01*
X53263Y229193D01*
X52237Y228601D01*
X51399Y227763D01*
X50807Y226737D01*
X50500Y225592D01*
Y225500D01*
X54500D01*
Y229500D01*
D02*
G37*
G36*
X45592D02*
X45500D01*
Y225500D01*
X49500D01*
Y225592D01*
X49193Y226737D01*
X48601Y227763D01*
X47763Y228601D01*
X46737Y229193D01*
X45592Y229500D01*
D02*
G37*
G36*
X44500D02*
X44408D01*
X43263Y229193D01*
X42237Y228601D01*
X41399Y227763D01*
X40807Y226737D01*
X40500Y225592D01*
Y225500D01*
X44500D01*
Y229500D01*
D02*
G37*
G36*
X35592D02*
X35500D01*
Y225500D01*
X39500D01*
Y225592D01*
X39193Y226737D01*
X38601Y227763D01*
X37763Y228601D01*
X36737Y229193D01*
X35592Y229500D01*
D02*
G37*
G36*
X34500D02*
X34408D01*
X33263Y229193D01*
X32237Y228601D01*
X31399Y227763D01*
X30807Y226737D01*
X30500Y225592D01*
Y225500D01*
X34500D01*
Y229500D01*
D02*
G37*
G36*
X130552Y229189D02*
X129448D01*
X128383Y228904D01*
X127428Y228352D01*
X126648Y227572D01*
X126096Y226617D01*
X125811Y225552D01*
Y224448D01*
X126096Y223383D01*
X126648Y222428D01*
X127428Y221648D01*
X128383Y221096D01*
X129448Y220811D01*
X130552D01*
X131617Y221096D01*
X132572Y221648D01*
X133352Y222428D01*
X133904Y223383D01*
X134189Y224448D01*
Y225552D01*
X133904Y226617D01*
X133352Y227572D01*
X132572Y228352D01*
X131617Y228904D01*
X130552Y229189D01*
D02*
G37*
G36*
X59500Y224500D02*
X55500D01*
Y220500D01*
X55592D01*
X56737Y220807D01*
X57763Y221399D01*
X58601Y222237D01*
X59193Y223263D01*
X59500Y224408D01*
Y224500D01*
D02*
G37*
G36*
X54500D02*
X50500D01*
Y224408D01*
X50807Y223263D01*
X51399Y222237D01*
X52237Y221399D01*
X53263Y220807D01*
X54408Y220500D01*
X54500D01*
Y224500D01*
D02*
G37*
G36*
X49500D02*
X45500D01*
Y220500D01*
X45592D01*
X46737Y220807D01*
X47763Y221399D01*
X48601Y222237D01*
X49193Y223263D01*
X49500Y224408D01*
Y224500D01*
D02*
G37*
G36*
X44500D02*
X40500D01*
Y224408D01*
X40807Y223263D01*
X41399Y222237D01*
X42237Y221399D01*
X43263Y220807D01*
X44408Y220500D01*
X44500D01*
Y224500D01*
D02*
G37*
G36*
X39500D02*
X35500D01*
Y220500D01*
X35592D01*
X36737Y220807D01*
X37763Y221399D01*
X38601Y222237D01*
X39193Y223263D01*
X39500Y224408D01*
Y224500D01*
D02*
G37*
G36*
X34500D02*
X30500D01*
Y224408D01*
X30807Y223263D01*
X31399Y222237D01*
X32237Y221399D01*
X33263Y220807D01*
X34408Y220500D01*
X34500D01*
Y224500D01*
D02*
G37*
G36*
X25592Y229500D02*
X24408D01*
X23263Y229193D01*
X22237Y228601D01*
X21399Y227763D01*
X20807Y226737D01*
X20500Y225592D01*
Y224408D01*
X20807Y223263D01*
X21399Y222237D01*
X22237Y221399D01*
X23263Y220807D01*
X24408Y220500D01*
X25592D01*
X26737Y220807D01*
X27763Y221399D01*
X28601Y222237D01*
X29193Y223263D01*
X29500Y224408D01*
Y225592D01*
X29193Y226737D01*
X28601Y227763D01*
X27763Y228601D01*
X26737Y229193D01*
X25592Y229500D01*
D02*
G37*
G36*
X194448Y209250D02*
X193552D01*
X192726Y208908D01*
X192347Y208529D01*
X187653D01*
X187275Y208908D01*
X186448Y209250D01*
X185552D01*
X184725Y208908D01*
X184092Y208275D01*
X183750Y207448D01*
Y206552D01*
X184092Y205726D01*
X184725Y205093D01*
X185552Y204750D01*
X186448D01*
X187275Y205093D01*
X187653Y205471D01*
X192347D01*
X192726Y205093D01*
X193552Y204750D01*
X194448D01*
X195274Y205093D01*
X195907Y205726D01*
X196250Y206552D01*
Y207448D01*
X195907Y208275D01*
X195274Y208908D01*
X194448Y209250D01*
D02*
G37*
G36*
X55592Y194500D02*
X55500D01*
Y190500D01*
X59500D01*
Y190592D01*
X59193Y191737D01*
X58601Y192763D01*
X57763Y193601D01*
X56737Y194193D01*
X55592Y194500D01*
D02*
G37*
G36*
X54500D02*
X54408D01*
X53263Y194193D01*
X52237Y193601D01*
X51399Y192763D01*
X50807Y191737D01*
X50500Y190592D01*
Y190500D01*
X54500D01*
Y194500D01*
D02*
G37*
G36*
X45592D02*
X45500D01*
Y190500D01*
X49500D01*
Y190592D01*
X49193Y191737D01*
X48601Y192763D01*
X47763Y193601D01*
X46737Y194193D01*
X45592Y194500D01*
D02*
G37*
G36*
X44500D02*
X44408D01*
X43263Y194193D01*
X42237Y193601D01*
X41399Y192763D01*
X40807Y191737D01*
X40500Y190592D01*
Y190500D01*
X44500D01*
Y194500D01*
D02*
G37*
G36*
X35592D02*
X35500D01*
Y190500D01*
X39500D01*
Y190592D01*
X39193Y191737D01*
X38601Y192763D01*
X37763Y193601D01*
X36737Y194193D01*
X35592Y194500D01*
D02*
G37*
G36*
X34500D02*
X34408D01*
X33263Y194193D01*
X32237Y193601D01*
X31399Y192763D01*
X30807Y191737D01*
X30500Y190592D01*
Y190500D01*
X34500D01*
Y194500D01*
D02*
G37*
G36*
X100559Y194248D02*
X99441D01*
X98360Y193958D01*
X97392Y193399D01*
X96601Y192608D01*
X96042Y191640D01*
X95752Y190559D01*
Y189441D01*
X96042Y188360D01*
X96601Y187392D01*
X97392Y186601D01*
X98360Y186041D01*
X99441Y185752D01*
X100559D01*
X101640Y186041D01*
X102608Y186601D01*
X103399Y187392D01*
X103958Y188360D01*
X104248Y189441D01*
Y190559D01*
X103958Y191640D01*
X103399Y192608D01*
X102608Y193399D01*
X101640Y193958D01*
X100559Y194248D01*
D02*
G37*
G36*
X90559D02*
X89441D01*
X88360Y193958D01*
X87392Y193399D01*
X86601Y192608D01*
X86041Y191640D01*
X85752Y190559D01*
Y189441D01*
X86041Y188360D01*
X86601Y187392D01*
X87392Y186601D01*
X88360Y186041D01*
X89441Y185752D01*
X90559D01*
X91640Y186041D01*
X92608Y186601D01*
X93399Y187392D01*
X93958Y188360D01*
X94248Y189441D01*
Y190559D01*
X93958Y191640D01*
X93399Y192608D01*
X92608Y193399D01*
X91640Y193958D01*
X90559Y194248D01*
D02*
G37*
G36*
X80559D02*
X79441D01*
X78360Y193958D01*
X77392Y193399D01*
X76601Y192608D01*
X76042Y191640D01*
X75752Y190559D01*
Y189441D01*
X76042Y188360D01*
X76601Y187392D01*
X77392Y186601D01*
X78360Y186041D01*
X79441Y185752D01*
X80559D01*
X81640Y186041D01*
X82608Y186601D01*
X83399Y187392D01*
X83959Y188360D01*
X84248Y189441D01*
Y190559D01*
X83959Y191640D01*
X83399Y192608D01*
X82608Y193399D01*
X81640Y193958D01*
X80559Y194248D01*
D02*
G37*
G36*
X222592Y189500D02*
X222500D01*
Y185500D01*
X226500D01*
Y185592D01*
X226193Y186737D01*
X225601Y187763D01*
X224763Y188601D01*
X223737Y189193D01*
X222592Y189500D01*
D02*
G37*
G36*
X221500D02*
X221408D01*
X220263Y189193D01*
X219237Y188601D01*
X218399Y187763D01*
X217807Y186737D01*
X217500Y185592D01*
Y185500D01*
X221500D01*
Y189500D01*
D02*
G37*
G36*
X212592D02*
X212500D01*
Y185500D01*
X216500D01*
Y185592D01*
X216193Y186737D01*
X215601Y187763D01*
X214763Y188601D01*
X213737Y189193D01*
X212592Y189500D01*
D02*
G37*
G36*
X211500D02*
X211408D01*
X210263Y189193D01*
X209237Y188601D01*
X208399Y187763D01*
X207807Y186737D01*
X207500Y185592D01*
Y185500D01*
X211500D01*
Y189500D01*
D02*
G37*
G36*
X202592D02*
X202500D01*
Y185500D01*
X206500D01*
Y185592D01*
X206193Y186737D01*
X205601Y187763D01*
X204763Y188601D01*
X203737Y189193D01*
X202592Y189500D01*
D02*
G37*
G36*
X201500D02*
X201408D01*
X200263Y189193D01*
X199237Y188601D01*
X198399Y187763D01*
X197807Y186737D01*
X197500Y185592D01*
Y185500D01*
X201500D01*
Y189500D01*
D02*
G37*
G36*
X59500D02*
X55500D01*
Y185500D01*
X55592D01*
X56737Y185807D01*
X57763Y186399D01*
X58601Y187237D01*
X59193Y188263D01*
X59500Y189408D01*
Y189500D01*
D02*
G37*
G36*
X54500D02*
X50500D01*
Y189408D01*
X50807Y188263D01*
X51399Y187237D01*
X52237Y186399D01*
X53263Y185807D01*
X54408Y185500D01*
X54500D01*
Y189500D01*
D02*
G37*
G36*
X49500D02*
X45500D01*
Y185500D01*
X45592D01*
X46737Y185807D01*
X47763Y186399D01*
X48601Y187237D01*
X49193Y188263D01*
X49500Y189408D01*
Y189500D01*
D02*
G37*
G36*
X44500D02*
X40500D01*
Y189408D01*
X40807Y188263D01*
X41399Y187237D01*
X42237Y186399D01*
X43263Y185807D01*
X44408Y185500D01*
X44500D01*
Y189500D01*
D02*
G37*
G36*
X39500D02*
X35500D01*
Y185500D01*
X35592D01*
X36737Y185807D01*
X37763Y186399D01*
X38601Y187237D01*
X39193Y188263D01*
X39500Y189408D01*
Y189500D01*
D02*
G37*
G36*
X34500D02*
X30500D01*
Y189408D01*
X30807Y188263D01*
X31399Y187237D01*
X32237Y186399D01*
X33263Y185807D01*
X34408Y185500D01*
X34500D01*
Y189500D01*
D02*
G37*
G36*
X25592Y194500D02*
X24408D01*
X23263Y194193D01*
X22237Y193601D01*
X21399Y192763D01*
X20807Y191737D01*
X20500Y190592D01*
Y189408D01*
X20807Y188263D01*
X21399Y187237D01*
X22237Y186399D01*
X23263Y185807D01*
X24408Y185500D01*
X25592D01*
X26737Y185807D01*
X27763Y186399D01*
X28601Y187237D01*
X29193Y188263D01*
X29500Y189408D01*
Y190592D01*
X29193Y191737D01*
X28601Y192763D01*
X27763Y193601D01*
X26737Y194193D01*
X25592Y194500D01*
D02*
G37*
G36*
X226500Y184500D02*
X222500D01*
Y180500D01*
X222592D01*
X223737Y180807D01*
X224763Y181399D01*
X225601Y182237D01*
X226193Y183263D01*
X226500Y184408D01*
Y184500D01*
D02*
G37*
G36*
X221500D02*
X217500D01*
Y184408D01*
X217807Y183263D01*
X218399Y182237D01*
X219237Y181399D01*
X220263Y180807D01*
X221408Y180500D01*
X221500D01*
Y184500D01*
D02*
G37*
G36*
X216500D02*
X212500D01*
Y180500D01*
X212592D01*
X213737Y180807D01*
X214763Y181399D01*
X215601Y182237D01*
X216193Y183263D01*
X216500Y184408D01*
Y184500D01*
D02*
G37*
G36*
X211500D02*
X207500D01*
Y184408D01*
X207807Y183263D01*
X208399Y182237D01*
X209237Y181399D01*
X210263Y180807D01*
X211408Y180500D01*
X211500D01*
Y184500D01*
D02*
G37*
G36*
X206500D02*
X202500D01*
Y180500D01*
X202592D01*
X203737Y180807D01*
X204763Y181399D01*
X205601Y182237D01*
X206193Y183263D01*
X206500Y184408D01*
Y184500D01*
D02*
G37*
G36*
X201500D02*
X197500D01*
Y184408D01*
X197807Y183263D01*
X198399Y182237D01*
X199237Y181399D01*
X200263Y180807D01*
X201408Y180500D01*
X201500D01*
Y184500D01*
D02*
G37*
G36*
X192592Y189500D02*
X191408D01*
X190263Y189193D01*
X189237Y188601D01*
X188399Y187763D01*
X187807Y186737D01*
X187500Y185592D01*
Y184408D01*
X187807Y183263D01*
X188399Y182237D01*
X189237Y181399D01*
X190263Y180807D01*
X191408Y180500D01*
X192592D01*
X193737Y180807D01*
X194763Y181399D01*
X195601Y182237D01*
X196193Y183263D01*
X196500Y184408D01*
Y185592D01*
X196193Y186737D01*
X195601Y187763D01*
X194763Y188601D01*
X193737Y189193D01*
X192592Y189500D01*
D02*
G37*
G36*
X180448Y176250D02*
X179552D01*
X178726Y175908D01*
X178093Y175275D01*
X177750Y174448D01*
Y173552D01*
X178093Y172725D01*
X178471Y172347D01*
Y165653D01*
X178093Y165275D01*
X177750Y164448D01*
Y163552D01*
X178093Y162725D01*
X178726Y162092D01*
X179552Y161750D01*
X180448D01*
X181274Y162092D01*
X181907Y162725D01*
X182250Y163552D01*
Y164448D01*
X181907Y165275D01*
X181529Y165653D01*
Y172347D01*
X181907Y172725D01*
X182250Y173552D01*
Y174448D01*
X181907Y175275D01*
X181274Y175908D01*
X180448Y176250D01*
D02*
G37*
G36*
X100448Y155250D02*
X99552D01*
X98725Y154908D01*
X98347Y154529D01*
X82653D01*
X82275Y154908D01*
X81448Y155250D01*
X80552D01*
X79725Y154908D01*
X79093Y154274D01*
X78750Y153448D01*
Y152552D01*
X79093Y151725D01*
X79725Y151093D01*
X80552Y150750D01*
X81448D01*
X82275Y151093D01*
X82653Y151471D01*
X98347D01*
X98725Y151093D01*
X99552Y150750D01*
X100448D01*
X101275Y151093D01*
X101908Y151725D01*
X102250Y152552D01*
Y153448D01*
X101908Y154274D01*
X101275Y154908D01*
X100448Y155250D01*
D02*
G37*
G36*
X180552Y154689D02*
X179448D01*
X178383Y154403D01*
X177428Y153852D01*
X176648Y153072D01*
X176096Y152117D01*
X175811Y151051D01*
Y149949D01*
X176096Y148883D01*
X176648Y147928D01*
X177428Y147148D01*
X178383Y146597D01*
X179448Y146311D01*
X180552D01*
X181617Y146597D01*
X182572Y147148D01*
X183352Y147928D01*
X183904Y148883D01*
X184189Y149949D01*
Y151051D01*
X183904Y152117D01*
X183352Y153072D01*
X182572Y153852D01*
X181617Y154403D01*
X180552Y154689D01*
D02*
G37*
G36*
Y144689D02*
X179448D01*
X178383Y144404D01*
X177428Y143852D01*
X176648Y143072D01*
X176096Y142117D01*
X175811Y141051D01*
Y139948D01*
X176096Y138883D01*
X176648Y137928D01*
X177428Y137148D01*
X178383Y136597D01*
X179448Y136311D01*
X180552D01*
X181617Y136597D01*
X182572Y137148D01*
X183352Y137928D01*
X183904Y138883D01*
X184189Y139948D01*
Y141051D01*
X183904Y142117D01*
X183352Y143072D01*
X182572Y143852D01*
X181617Y144404D01*
X180552Y144689D01*
D02*
G37*
G36*
X285552Y129189D02*
X284449D01*
X283383Y128903D01*
X282428Y128352D01*
X281648Y127572D01*
X281097Y126617D01*
X280811Y125551D01*
Y124449D01*
X281097Y123383D01*
X281648Y122428D01*
X282428Y121648D01*
X283383Y121097D01*
X284449Y120811D01*
X285552D01*
X286617Y121097D01*
X287572Y121648D01*
X288352Y122428D01*
X288903Y123383D01*
X289189Y124449D01*
Y125551D01*
X288903Y126617D01*
X288352Y127572D01*
X287572Y128352D01*
X286617Y128903D01*
X285552Y129189D01*
D02*
G37*
G36*
X275552D02*
X274448D01*
X273383Y128903D01*
X272428Y128352D01*
X271648Y127572D01*
X271096Y126617D01*
X270811Y125551D01*
Y124449D01*
X271096Y123383D01*
X271648Y122428D01*
X272428Y121648D01*
X273383Y121097D01*
X274448Y120811D01*
X275552D01*
X276617Y121097D01*
X277572Y121648D01*
X278352Y122428D01*
X278904Y123383D01*
X279189Y124449D01*
Y125551D01*
X278904Y126617D01*
X278352Y127572D01*
X277572Y128352D01*
X276617Y128903D01*
X275552Y129189D01*
D02*
G37*
G36*
X225592Y114500D02*
X225500D01*
Y110500D01*
X229500D01*
Y110592D01*
X229193Y111737D01*
X228601Y112763D01*
X227763Y113601D01*
X226737Y114193D01*
X225592Y114500D01*
D02*
G37*
G36*
X224500D02*
X224408D01*
X223263Y114193D01*
X222237Y113601D01*
X221399Y112763D01*
X220807Y111737D01*
X220500Y110592D01*
Y110500D01*
X224500D01*
Y114500D01*
D02*
G37*
G36*
X215592D02*
X215500D01*
Y110500D01*
X219500D01*
Y110592D01*
X219193Y111737D01*
X218601Y112763D01*
X217763Y113601D01*
X216737Y114193D01*
X215592Y114500D01*
D02*
G37*
G36*
X214500D02*
X214408D01*
X213263Y114193D01*
X212237Y113601D01*
X211399Y112763D01*
X210807Y111737D01*
X210500Y110592D01*
Y110500D01*
X214500D01*
Y114500D01*
D02*
G37*
G36*
X205592D02*
X205500D01*
Y110500D01*
X209500D01*
Y110592D01*
X209193Y111737D01*
X208601Y112763D01*
X207763Y113601D01*
X206737Y114193D01*
X205592Y114500D01*
D02*
G37*
G36*
X204500D02*
X204408D01*
X203263Y114193D01*
X202237Y113601D01*
X201399Y112763D01*
X200807Y111737D01*
X200500Y110592D01*
Y110500D01*
X204500D01*
Y114500D01*
D02*
G37*
G36*
X229500Y109500D02*
X225500D01*
Y105500D01*
X225592D01*
X226737Y105807D01*
X227763Y106399D01*
X228601Y107237D01*
X229193Y108263D01*
X229500Y109408D01*
Y109500D01*
D02*
G37*
G36*
X224500D02*
X220500D01*
Y109408D01*
X220807Y108263D01*
X221399Y107237D01*
X222237Y106399D01*
X223263Y105807D01*
X224408Y105500D01*
X224500D01*
Y109500D01*
D02*
G37*
G36*
X219500D02*
X215500D01*
Y105500D01*
X215592D01*
X216737Y105807D01*
X217763Y106399D01*
X218601Y107237D01*
X219193Y108263D01*
X219500Y109408D01*
Y109500D01*
D02*
G37*
G36*
X214500D02*
X210500D01*
Y109408D01*
X210807Y108263D01*
X211399Y107237D01*
X212237Y106399D01*
X213263Y105807D01*
X214408Y105500D01*
X214500D01*
Y109500D01*
D02*
G37*
G36*
X209500D02*
X205500D01*
Y105500D01*
X205592D01*
X206737Y105807D01*
X207763Y106399D01*
X208601Y107237D01*
X209193Y108263D01*
X209500Y109408D01*
Y109500D01*
D02*
G37*
G36*
X204500D02*
X200500D01*
Y109408D01*
X200807Y108263D01*
X201399Y107237D01*
X202237Y106399D01*
X203263Y105807D01*
X204408Y105500D01*
X204500D01*
Y109500D01*
D02*
G37*
G36*
X195592Y114500D02*
X194408D01*
X193263Y114193D01*
X192237Y113601D01*
X191399Y112763D01*
X190807Y111737D01*
X190500Y110592D01*
Y109408D01*
X190807Y108263D01*
X191399Y107237D01*
X192237Y106399D01*
X193263Y105807D01*
X194408Y105500D01*
X195592D01*
X196737Y105807D01*
X197763Y106399D01*
X198601Y107237D01*
X199193Y108263D01*
X199500Y109408D01*
Y110592D01*
X199193Y111737D01*
X198601Y112763D01*
X197763Y113601D01*
X196737Y114193D01*
X195592Y114500D01*
D02*
G37*
G36*
X355592Y99500D02*
X355500D01*
Y95500D01*
X359500D01*
Y95592D01*
X359193Y96737D01*
X358601Y97763D01*
X357763Y98601D01*
X356737Y99193D01*
X355592Y99500D01*
D02*
G37*
G36*
X354500D02*
X354408D01*
X353263Y99193D01*
X352237Y98601D01*
X351399Y97763D01*
X350807Y96737D01*
X350500Y95592D01*
Y95500D01*
X354500D01*
Y99500D01*
D02*
G37*
G36*
X345592D02*
X345500D01*
Y95500D01*
X349500D01*
Y95592D01*
X349193Y96737D01*
X348601Y97763D01*
X347763Y98601D01*
X346737Y99193D01*
X345592Y99500D01*
D02*
G37*
G36*
X344500D02*
X344408D01*
X343263Y99193D01*
X342237Y98601D01*
X341399Y97763D01*
X340807Y96737D01*
X340500Y95592D01*
Y95500D01*
X344500D01*
Y99500D01*
D02*
G37*
G36*
X335592D02*
X335500D01*
Y95500D01*
X339500D01*
Y95592D01*
X339193Y96737D01*
X338601Y97763D01*
X337763Y98601D01*
X336737Y99193D01*
X335592Y99500D01*
D02*
G37*
G36*
X334500D02*
X334408D01*
X333263Y99193D01*
X332237Y98601D01*
X331399Y97763D01*
X330807Y96737D01*
X330500Y95592D01*
Y95500D01*
X334500D01*
Y99500D01*
D02*
G37*
G36*
X170592D02*
X170500D01*
Y95500D01*
X174500D01*
Y95592D01*
X174193Y96737D01*
X173601Y97763D01*
X172763Y98601D01*
X171737Y99193D01*
X170592Y99500D01*
D02*
G37*
G36*
X169500D02*
X169408D01*
X168263Y99193D01*
X167237Y98601D01*
X166399Y97763D01*
X165807Y96737D01*
X165500Y95592D01*
Y95500D01*
X169500D01*
Y99500D01*
D02*
G37*
G36*
X359500Y94500D02*
X355500D01*
Y90500D01*
X355592D01*
X356737Y90807D01*
X357763Y91399D01*
X358601Y92237D01*
X359193Y93263D01*
X359500Y94408D01*
Y94500D01*
D02*
G37*
G36*
X354500D02*
X350500D01*
Y94408D01*
X350807Y93263D01*
X351399Y92237D01*
X352237Y91399D01*
X353263Y90807D01*
X354408Y90500D01*
X354500D01*
Y94500D01*
D02*
G37*
G36*
X349500D02*
X345500D01*
Y90500D01*
X345592D01*
X346737Y90807D01*
X347763Y91399D01*
X348601Y92237D01*
X349193Y93263D01*
X349500Y94408D01*
Y94500D01*
D02*
G37*
G36*
X344500D02*
X340500D01*
Y94408D01*
X340807Y93263D01*
X341399Y92237D01*
X342237Y91399D01*
X343263Y90807D01*
X344408Y90500D01*
X344500D01*
Y94500D01*
D02*
G37*
G36*
X339500D02*
X335500D01*
Y90500D01*
X335592D01*
X336737Y90807D01*
X337763Y91399D01*
X338601Y92237D01*
X339193Y93263D01*
X339500Y94408D01*
Y94500D01*
D02*
G37*
G36*
X334500D02*
X330500D01*
Y94408D01*
X330807Y93263D01*
X331399Y92237D01*
X332237Y91399D01*
X333263Y90807D01*
X334408Y90500D01*
X334500D01*
Y94500D01*
D02*
G37*
G36*
X325592Y99500D02*
X324408D01*
X323263Y99193D01*
X322237Y98601D01*
X321399Y97763D01*
X320807Y96737D01*
X320500Y95592D01*
Y94408D01*
X320807Y93263D01*
X321399Y92237D01*
X322237Y91399D01*
X323263Y90807D01*
X324408Y90500D01*
X325592D01*
X326737Y90807D01*
X327763Y91399D01*
X328601Y92237D01*
X329193Y93263D01*
X329500Y94408D01*
Y95592D01*
X329193Y96737D01*
X328601Y97763D01*
X327763Y98601D01*
X326737Y99193D01*
X325592Y99500D01*
D02*
G37*
G36*
X174500Y94500D02*
X170500D01*
Y90500D01*
X170592D01*
X171737Y90807D01*
X172763Y91399D01*
X173601Y92237D01*
X174193Y93263D01*
X174500Y94408D01*
Y94500D01*
D02*
G37*
G36*
X169500D02*
X165500D01*
Y94408D01*
X165807Y93263D01*
X166399Y92237D01*
X167237Y91399D01*
X168263Y90807D01*
X169408Y90500D01*
X169500D01*
Y94500D01*
D02*
G37*
G36*
X355592Y64500D02*
X355500D01*
Y60500D01*
X359500D01*
Y60592D01*
X359193Y61737D01*
X358601Y62763D01*
X357763Y63601D01*
X356737Y64193D01*
X355592Y64500D01*
D02*
G37*
G36*
X354500D02*
X354408D01*
X353263Y64193D01*
X352237Y63601D01*
X351399Y62763D01*
X350807Y61737D01*
X350500Y60592D01*
Y60500D01*
X354500D01*
Y64500D01*
D02*
G37*
G36*
X345592D02*
X345500D01*
Y60500D01*
X349500D01*
Y60592D01*
X349193Y61737D01*
X348601Y62763D01*
X347763Y63601D01*
X346737Y64193D01*
X345592Y64500D01*
D02*
G37*
G36*
X344500D02*
X344408D01*
X343263Y64193D01*
X342237Y63601D01*
X341399Y62763D01*
X340807Y61737D01*
X340500Y60592D01*
Y60500D01*
X344500D01*
Y64500D01*
D02*
G37*
G36*
X335592D02*
X335500D01*
Y60500D01*
X339500D01*
Y60592D01*
X339193Y61737D01*
X338601Y62763D01*
X337763Y63601D01*
X336737Y64193D01*
X335592Y64500D01*
D02*
G37*
G36*
X334500D02*
X334408D01*
X333263Y64193D01*
X332237Y63601D01*
X331399Y62763D01*
X330807Y61737D01*
X330500Y60592D01*
Y60500D01*
X334500D01*
Y64500D01*
D02*
G37*
G36*
X170592D02*
X170500D01*
Y60500D01*
X174500D01*
Y60592D01*
X174193Y61737D01*
X173601Y62763D01*
X172763Y63601D01*
X171737Y64193D01*
X170592Y64500D01*
D02*
G37*
G36*
X169500D02*
X169408D01*
X168263Y64193D01*
X167237Y63601D01*
X166399Y62763D01*
X165807Y61737D01*
X165500Y60592D01*
Y60500D01*
X169500D01*
Y64500D01*
D02*
G37*
G36*
X359500Y59500D02*
X355500D01*
Y55500D01*
X355592D01*
X356737Y55807D01*
X357763Y56399D01*
X358601Y57237D01*
X359193Y58263D01*
X359500Y59408D01*
Y59500D01*
D02*
G37*
G36*
X354500D02*
X350500D01*
Y59408D01*
X350807Y58263D01*
X351399Y57237D01*
X352237Y56399D01*
X353263Y55807D01*
X354408Y55500D01*
X354500D01*
Y59500D01*
D02*
G37*
G36*
X349500D02*
X345500D01*
Y55500D01*
X345592D01*
X346737Y55807D01*
X347763Y56399D01*
X348601Y57237D01*
X349193Y58263D01*
X349500Y59408D01*
Y59500D01*
D02*
G37*
G36*
X344500D02*
X340500D01*
Y59408D01*
X340807Y58263D01*
X341399Y57237D01*
X342237Y56399D01*
X343263Y55807D01*
X344408Y55500D01*
X344500D01*
Y59500D01*
D02*
G37*
G36*
X339500D02*
X335500D01*
Y55500D01*
X335592D01*
X336737Y55807D01*
X337763Y56399D01*
X338601Y57237D01*
X339193Y58263D01*
X339500Y59408D01*
Y59500D01*
D02*
G37*
G36*
X334500D02*
X330500D01*
Y59408D01*
X330807Y58263D01*
X331399Y57237D01*
X332237Y56399D01*
X333263Y55807D01*
X334408Y55500D01*
X334500D01*
Y59500D01*
D02*
G37*
G36*
X325592Y64500D02*
X324408D01*
X323263Y64193D01*
X322237Y63601D01*
X321399Y62763D01*
X320807Y61737D01*
X320500Y60592D01*
Y59408D01*
X320807Y58263D01*
X321399Y57237D01*
X322237Y56399D01*
X323263Y55807D01*
X324408Y55500D01*
X325592D01*
X326737Y55807D01*
X327763Y56399D01*
X328601Y57237D01*
X329193Y58263D01*
X329500Y59408D01*
Y60592D01*
X329193Y61737D01*
X328601Y62763D01*
X327763Y63601D01*
X326737Y64193D01*
X325592Y64500D01*
D02*
G37*
G36*
X174500Y59500D02*
X170500D01*
Y55500D01*
X170592D01*
X171737Y55807D01*
X172763Y56399D01*
X173601Y57237D01*
X174193Y58263D01*
X174500Y59408D01*
Y59500D01*
D02*
G37*
G36*
X169500D02*
X165500D01*
Y59408D01*
X165807Y58263D01*
X166399Y57237D01*
X167237Y56399D01*
X168263Y55807D01*
X169408Y55500D01*
X169500D01*
Y59500D01*
D02*
G37*
G36*
X355592Y29500D02*
X355500D01*
Y25500D01*
X359500D01*
Y25592D01*
X359193Y26737D01*
X358601Y27763D01*
X357763Y28601D01*
X356737Y29193D01*
X355592Y29500D01*
D02*
G37*
G36*
X354500D02*
X354408D01*
X353263Y29193D01*
X352237Y28601D01*
X351399Y27763D01*
X350807Y26737D01*
X350500Y25592D01*
Y25500D01*
X354500D01*
Y29500D01*
D02*
G37*
G36*
X345592D02*
X345500D01*
Y25500D01*
X349500D01*
Y25592D01*
X349193Y26737D01*
X348601Y27763D01*
X347763Y28601D01*
X346737Y29193D01*
X345592Y29500D01*
D02*
G37*
G36*
X344500D02*
X344408D01*
X343263Y29193D01*
X342237Y28601D01*
X341399Y27763D01*
X340807Y26737D01*
X340500Y25592D01*
Y25500D01*
X344500D01*
Y29500D01*
D02*
G37*
G36*
X335592D02*
X335500D01*
Y25500D01*
X339500D01*
Y25592D01*
X339193Y26737D01*
X338601Y27763D01*
X337763Y28601D01*
X336737Y29193D01*
X335592Y29500D01*
D02*
G37*
G36*
X334500D02*
X334408D01*
X333263Y29193D01*
X332237Y28601D01*
X331399Y27763D01*
X330807Y26737D01*
X330500Y25592D01*
Y25500D01*
X334500D01*
Y29500D01*
D02*
G37*
G36*
X170592D02*
X170500D01*
Y25500D01*
X174500D01*
Y25592D01*
X174193Y26737D01*
X173601Y27763D01*
X172763Y28601D01*
X171737Y29193D01*
X170592Y29500D01*
D02*
G37*
G36*
X169500D02*
X169408D01*
X168263Y29193D01*
X167237Y28601D01*
X166399Y27763D01*
X165807Y26737D01*
X165500Y25592D01*
Y25500D01*
X169500D01*
Y29500D01*
D02*
G37*
G36*
X359500Y24500D02*
X355500D01*
Y20500D01*
X355592D01*
X356737Y20807D01*
X357763Y21399D01*
X358601Y22237D01*
X359193Y23263D01*
X359500Y24408D01*
Y24500D01*
D02*
G37*
G36*
X354500D02*
X350500D01*
Y24408D01*
X350807Y23263D01*
X351399Y22237D01*
X352237Y21399D01*
X353263Y20807D01*
X354408Y20500D01*
X354500D01*
Y24500D01*
D02*
G37*
G36*
X349500D02*
X345500D01*
Y20500D01*
X345592D01*
X346737Y20807D01*
X347763Y21399D01*
X348601Y22237D01*
X349193Y23263D01*
X349500Y24408D01*
Y24500D01*
D02*
G37*
G36*
X344500D02*
X340500D01*
Y24408D01*
X340807Y23263D01*
X341399Y22237D01*
X342237Y21399D01*
X343263Y20807D01*
X344408Y20500D01*
X344500D01*
Y24500D01*
D02*
G37*
G36*
X339500D02*
X335500D01*
Y20500D01*
X335592D01*
X336737Y20807D01*
X337763Y21399D01*
X338601Y22237D01*
X339193Y23263D01*
X339500Y24408D01*
Y24500D01*
D02*
G37*
G36*
X334500D02*
X330500D01*
Y24408D01*
X330807Y23263D01*
X331399Y22237D01*
X332237Y21399D01*
X333263Y20807D01*
X334408Y20500D01*
X334500D01*
Y24500D01*
D02*
G37*
G36*
X325592Y29500D02*
X324408D01*
X323263Y29193D01*
X322237Y28601D01*
X321399Y27763D01*
X320807Y26737D01*
X320500Y25592D01*
Y24408D01*
X320807Y23263D01*
X321399Y22237D01*
X322237Y21399D01*
X323263Y20807D01*
X324408Y20500D01*
X325592D01*
X326737Y20807D01*
X327763Y21399D01*
X328601Y22237D01*
X329193Y23263D01*
X329500Y24408D01*
Y25592D01*
X329193Y26737D01*
X328601Y27763D01*
X327763Y28601D01*
X326737Y29193D01*
X325592Y29500D01*
D02*
G37*
G36*
X174500Y24500D02*
X170500D01*
Y20500D01*
X170592D01*
X171737Y20807D01*
X172763Y21399D01*
X173601Y22237D01*
X174193Y23263D01*
X174500Y24408D01*
Y24500D01*
D02*
G37*
G36*
X169500D02*
X165500D01*
Y24408D01*
X165807Y23263D01*
X166399Y22237D01*
X167237Y21399D01*
X168263Y20807D01*
X169408Y20500D01*
X169500D01*
Y24500D01*
D02*
G37*
%LPD*%
D14*
X125000Y68000D02*
X129000Y72000D01*
X133000D01*
X98713Y45287D02*
X99000Y45000D01*
X92000Y50000D02*
X96713Y45287D01*
X98713D01*
X91750Y50000D02*
X92000D01*
X180000Y164000D02*
Y174000D01*
X66000Y63000D02*
Y80000D01*
X186000Y207000D02*
X194000D01*
X81000Y153000D02*
X100000D01*
X66000Y52000D02*
Y58000D01*
D38*
X180000Y140500D02*
D03*
Y150500D02*
D03*
X130000Y235000D02*
D03*
Y225000D02*
D03*
X275000Y125000D02*
D03*
X285000D02*
D03*
X100000D02*
D03*
X110000D02*
D03*
D39*
X335000Y60000D02*
D03*
X325000D02*
D03*
X355000D02*
D03*
X345000D02*
D03*
X335000Y95000D02*
D03*
X325000D02*
D03*
X355000D02*
D03*
X345000D02*
D03*
X335000Y25000D02*
D03*
X325000D02*
D03*
X355000D02*
D03*
X345000D02*
D03*
X205000Y110000D02*
D03*
X195000D02*
D03*
X225000D02*
D03*
X215000D02*
D03*
X35000Y190000D02*
D03*
X25000D02*
D03*
X55000D02*
D03*
X45000D02*
D03*
X35000Y225000D02*
D03*
X25000D02*
D03*
X55000D02*
D03*
X45000D02*
D03*
X202000Y185000D02*
D03*
X192000D02*
D03*
X222000D02*
D03*
X212000D02*
D03*
X30000Y110000D02*
D03*
X20000D02*
D03*
X50000D02*
D03*
X40000D02*
D03*
X150000Y95000D02*
D03*
X140000D02*
D03*
X170000D02*
D03*
X160000D02*
D03*
X150000Y60000D02*
D03*
X140000D02*
D03*
X170000D02*
D03*
X160000D02*
D03*
X150000Y25000D02*
D03*
X140000D02*
D03*
X170000D02*
D03*
X160000D02*
D03*
D40*
X58622Y270000D02*
D03*
X35000D02*
D03*
D41*
X48779Y251693D02*
D03*
D42*
X100000Y190000D02*
D03*
X90000D02*
D03*
X80000D02*
D03*
D43*
X125000Y68000D02*
D03*
X181000Y72000D02*
D03*
X133000D02*
D03*
X99000Y45000D02*
D03*
X91750Y50000D02*
D03*
X180000Y164000D02*
D03*
Y174000D02*
D03*
X66000Y63000D02*
D03*
X192500Y227500D02*
D03*
X194000Y207000D02*
D03*
X186000D02*
D03*
X81000Y153000D02*
D03*
X100000D02*
D03*
X66000Y52000D02*
D03*
Y58000D02*
D03*
Y80000D02*
D03*
X12000Y149000D02*
D03*
X248000Y36000D02*
D03*
X304000Y68000D02*
D03*
Y82000D02*
D03*
X300000Y187500D02*
D03*
X185000Y30000D02*
D03*
Y55000D02*
D03*
Y80000D02*
D03*
X257500Y227500D02*
D03*
X160000Y182500D02*
D03*
X135000Y257500D02*
D03*
X95000D02*
D03*
X145000Y217500D02*
D03*
X114000Y250000D02*
D03*
M02*
