G04*
G04 #@! TF.GenerationSoftware,Altium Limited,Altium Designer,25.2.1 (25)*
G04*
G04 Layer_Color=128*
%FSLAX25Y25*%
%MOIN*%
G70*
G04*
G04 #@! TF.SameCoordinates,99A0EC09-0DB1-4406-8349-B672291F68DE*
G04*
G04*
G04 #@! TF.FilePolarity,Positive*
G04*
G01*
G75*
%ADD17C,0.00500*%
D17*
X177992Y140500D02*
X182008D01*
X180000Y138492D02*
Y142508D01*
X177992Y150500D02*
X182008D01*
X180000Y148492D02*
Y152508D01*
X333000Y60000D02*
X337000D01*
X335000Y58000D02*
Y62000D01*
X323000Y60000D02*
X327000D01*
X325000Y58000D02*
Y62000D01*
X353000Y60000D02*
X357000D01*
X355000Y58000D02*
Y62000D01*
X343000Y60000D02*
X347000D01*
X345000Y58000D02*
Y62000D01*
X333000Y95000D02*
X337000D01*
X335000Y93000D02*
Y97000D01*
X323000Y95000D02*
X327000D01*
X325000Y93000D02*
Y97000D01*
X353000Y95000D02*
X357000D01*
X355000Y93000D02*
Y97000D01*
X343000Y95000D02*
X347000D01*
X345000Y93000D02*
Y97000D01*
X333000Y25000D02*
X337000D01*
X335000Y23000D02*
Y27000D01*
X323000Y25000D02*
X327000D01*
X325000Y23000D02*
Y27000D01*
X353000Y25000D02*
X357000D01*
X355000Y23000D02*
Y27000D01*
X343000Y25000D02*
X347000D01*
X345000Y23000D02*
Y27000D01*
X56260Y270000D02*
X60984D01*
X58622Y267638D02*
Y272362D01*
X32638Y270000D02*
X37362D01*
X35000Y267638D02*
Y272362D01*
X46811Y251693D02*
X50748D01*
X48779Y249724D02*
Y253661D01*
X127992Y235000D02*
X132008D01*
X130000Y232992D02*
Y237008D01*
X127992Y225000D02*
X132008D01*
X130000Y222992D02*
Y227008D01*
X97835Y190000D02*
X102165D01*
X100000Y187835D02*
Y192165D01*
X87835Y190000D02*
X92165D01*
X90000Y187835D02*
Y192165D01*
X77835Y190000D02*
X82165D01*
X80000Y187835D02*
Y192165D01*
X203000Y110000D02*
X207000D01*
X205000Y108000D02*
Y112000D01*
X193000Y110000D02*
X197000D01*
X195000Y108000D02*
Y112000D01*
X223000Y110000D02*
X227000D01*
X225000Y108000D02*
Y112000D01*
X213000Y110000D02*
X217000D01*
X215000Y108000D02*
Y112000D01*
X33000Y190000D02*
X37000D01*
X35000Y188000D02*
Y192000D01*
X23000Y190000D02*
X27000D01*
X25000Y188000D02*
Y192000D01*
X53000Y190000D02*
X57000D01*
X55000Y188000D02*
Y192000D01*
X43000Y190000D02*
X47000D01*
X45000Y188000D02*
Y192000D01*
X33000Y225000D02*
X37000D01*
X35000Y223000D02*
Y227000D01*
X23000Y225000D02*
X27000D01*
X25000Y223000D02*
Y227000D01*
X53000Y225000D02*
X57000D01*
X55000Y223000D02*
Y227000D01*
X43000Y225000D02*
X47000D01*
X45000Y223000D02*
Y227000D01*
X272992Y125000D02*
X277008D01*
X275000Y122992D02*
Y127008D01*
X282992Y125000D02*
X287008D01*
X285000Y122992D02*
Y127008D01*
X200000Y185000D02*
X204000D01*
X202000Y183000D02*
Y187000D01*
X190000Y185000D02*
X194000D01*
X192000Y183000D02*
Y187000D01*
X220000Y185000D02*
X224000D01*
X222000Y183000D02*
Y187000D01*
X210000Y185000D02*
X214000D01*
X212000Y183000D02*
Y187000D01*
X28000Y110000D02*
X32000D01*
X30000Y108000D02*
Y112000D01*
X18000Y110000D02*
X22000D01*
X20000Y108000D02*
Y112000D01*
X48000Y110000D02*
X52000D01*
X50000Y108000D02*
Y112000D01*
X38000Y110000D02*
X42000D01*
X40000Y108000D02*
Y112000D01*
X97992Y125000D02*
X102008D01*
X100000Y122992D02*
Y127008D01*
X107992Y125000D02*
X112008D01*
X110000Y122992D02*
Y127008D01*
X148000Y95000D02*
X152000D01*
X150000Y93000D02*
Y97000D01*
X138000Y95000D02*
X142000D01*
X140000Y93000D02*
Y97000D01*
X168000Y95000D02*
X172000D01*
X170000Y93000D02*
Y97000D01*
X158000Y95000D02*
X162000D01*
X160000Y93000D02*
Y97000D01*
X148000Y60000D02*
X152000D01*
X150000Y58000D02*
Y62000D01*
X138000Y60000D02*
X142000D01*
X140000Y58000D02*
Y62000D01*
X168000Y60000D02*
X172000D01*
X170000Y58000D02*
Y62000D01*
X158000Y60000D02*
X162000D01*
X160000Y58000D02*
Y62000D01*
X148000Y25000D02*
X152000D01*
X150000Y23000D02*
Y27000D01*
X138000Y25000D02*
X142000D01*
X140000Y23000D02*
Y27000D01*
X168000Y25000D02*
X172000D01*
X170000Y23000D02*
Y27000D01*
X158000Y25000D02*
X162000D01*
X160000Y23000D02*
Y27000D01*
X124350Y68000D02*
X125650D01*
X125000Y67350D02*
Y68650D01*
X180350Y72000D02*
X181650D01*
X181000Y71350D02*
Y72650D01*
X132350Y72000D02*
X133650D01*
X133000Y71350D02*
Y72650D01*
X98350Y45000D02*
X99650D01*
X99000Y44350D02*
Y45650D01*
X91100Y50000D02*
X92400D01*
X91750Y49350D02*
Y50650D01*
X179350Y164000D02*
X180650D01*
X180000Y163350D02*
Y164650D01*
X179350Y174000D02*
X180650D01*
X180000Y173350D02*
Y174650D01*
X65350Y63000D02*
X66650D01*
X66000Y62350D02*
Y63650D01*
X191850Y227500D02*
X193150D01*
X192500Y226850D02*
Y228150D01*
X193350Y207000D02*
X194650D01*
X194000Y206350D02*
Y207650D01*
X185350Y207000D02*
X186650D01*
X186000Y206350D02*
Y207650D01*
X80350Y153000D02*
X81650D01*
X81000Y152350D02*
Y153650D01*
X99350Y153000D02*
X100650D01*
X100000Y152350D02*
Y153650D01*
X65350Y52000D02*
X66650D01*
X66000Y51350D02*
Y52650D01*
X65350Y58000D02*
X66650D01*
X66000Y57350D02*
Y58650D01*
X65350Y80000D02*
X66650D01*
X66000Y79350D02*
Y80650D01*
X11350Y149000D02*
X12650D01*
X12000Y148350D02*
Y149650D01*
X247350Y36000D02*
X248650D01*
X248000Y35350D02*
Y36650D01*
X303350Y68000D02*
X304650D01*
X304000Y67350D02*
Y68650D01*
X303350Y82000D02*
X304650D01*
X304000Y81350D02*
Y82650D01*
X299350Y187500D02*
X300650D01*
X300000Y186850D02*
Y188150D01*
X184350Y30000D02*
X185650D01*
X185000Y29350D02*
Y30650D01*
X184350Y55000D02*
X185650D01*
X185000Y54350D02*
Y55650D01*
X184350Y80000D02*
X185650D01*
X185000Y79350D02*
Y80650D01*
X256850Y227500D02*
X258150D01*
X257500Y226850D02*
Y228150D01*
X159350Y182500D02*
X160650D01*
X160000Y181850D02*
Y183150D01*
X134350Y257500D02*
X135650D01*
X135000Y256850D02*
Y258150D01*
X94350Y257500D02*
X95650D01*
X95000Y256850D02*
Y258150D01*
X144350Y217500D02*
X145650D01*
X145000Y216850D02*
Y218150D01*
X113350Y250000D02*
X114650D01*
X114000Y249350D02*
Y250650D01*
M02*
