G04*
G04 #@! TF.GenerationSoftware,Altium Limited,Altium Designer,25.2.1 (25)*
G04*
G04 Layer_Color=8421504*
%FSLAX25Y25*%
%MOIN*%
G70*
G04*
G04 #@! TF.SameCoordinates,99A0EC09-0DB1-4406-8349-B672291F68DE*
G04*
G04*
G04 #@! TF.FilePolarity,Positive*
G04*
G01*
G75*
%ADD19R,0.07100X0.04400*%
%ADD20R,0.10433X0.02362*%
%ADD21R,0.03300X0.06693*%
%ADD22R,0.12200X0.06693*%
%ADD23R,0.04400X0.07100*%
%ADD24R,0.13386X0.02362*%
D19*
X118000Y21000D02*
D03*
Y9200D02*
D03*
X294000Y81900D02*
D03*
Y70100D02*
D03*
X95000Y264100D02*
D03*
Y275900D02*
D03*
X115000Y264100D02*
D03*
Y275900D02*
D03*
X135000D02*
D03*
Y264100D02*
D03*
X280000Y205900D02*
D03*
Y194100D02*
D03*
X260000Y205900D02*
D03*
Y194100D02*
D03*
X130000Y189100D02*
D03*
Y200900D02*
D03*
X160000D02*
D03*
Y189100D02*
D03*
X145000Y224100D02*
D03*
Y235900D02*
D03*
X300000Y194100D02*
D03*
Y205900D02*
D03*
D20*
X281000Y70000D02*
D03*
X281165Y65000D02*
D03*
Y60000D02*
D03*
Y55000D02*
D03*
Y50000D02*
D03*
Y45000D02*
D03*
Y40000D02*
D03*
X258835D02*
D03*
Y45000D02*
D03*
Y50000D02*
D03*
Y55000D02*
D03*
Y60000D02*
D03*
Y65000D02*
D03*
Y70000D02*
D03*
X106000D02*
D03*
X106165Y65000D02*
D03*
Y60000D02*
D03*
Y55000D02*
D03*
Y50000D02*
D03*
Y45000D02*
D03*
Y40000D02*
D03*
X83835D02*
D03*
Y45000D02*
D03*
Y50000D02*
D03*
Y55000D02*
D03*
Y60000D02*
D03*
Y65000D02*
D03*
Y70000D02*
D03*
D21*
X95900Y243779D02*
D03*
X105000Y242795D02*
D03*
X114100D02*
D03*
D22*
X105000Y217205D02*
D03*
D23*
X219100Y30000D02*
D03*
X230900D02*
D03*
X44100D02*
D03*
X55900D02*
D03*
X205900D02*
D03*
X194100D02*
D03*
X30900D02*
D03*
X19100D02*
D03*
X205900Y55000D02*
D03*
X194100D02*
D03*
X219100D02*
D03*
X230900D02*
D03*
X100900Y95000D02*
D03*
X89100D02*
D03*
X44100Y80000D02*
D03*
X55900D02*
D03*
X44100Y55000D02*
D03*
X55900D02*
D03*
X30900Y80000D02*
D03*
X19100D02*
D03*
X30900Y55000D02*
D03*
X19100D02*
D03*
X205900Y80000D02*
D03*
X194100D02*
D03*
X219100D02*
D03*
X230900D02*
D03*
X275900Y95000D02*
D03*
X264100D02*
D03*
X250900Y227500D02*
D03*
X239100D02*
D03*
D24*
X225630D02*
D03*
Y222500D02*
D03*
Y217500D02*
D03*
Y212500D02*
D03*
X204370D02*
D03*
Y217500D02*
D03*
Y222500D02*
D03*
Y227500D02*
D03*
M02*
