G04*
G04 #@! TF.GenerationSoftware,Altium Limited,Altium Designer,25.2.1 (25)*
G04*
G04 Layer_Color=8388736*
%FSLAX25Y25*%
%MOIN*%
G70*
G04*
G04 #@! TF.SameCoordinates,99A0EC09-0DB1-4406-8349-B672291F68DE*
G04*
G04*
G04 #@! TF.FilePolarity,Negative*
G04*
G01*
G75*
%ADD25C,0.00000*%
%ADD26R,0.07900X0.05200*%
%ADD27R,0.11233X0.03162*%
%ADD28R,0.04100X0.07493*%
%ADD29R,0.13000X0.07493*%
%ADD30R,0.05200X0.07900*%
%ADD31R,0.14186X0.03162*%
%ADD32C,0.07178*%
%ADD33C,0.07800*%
%ADD34O,0.08674X0.15761*%
%ADD35O,0.13792X0.07887*%
%ADD36C,0.07296*%
%ADD37C,0.03300*%
D25*
X183390Y140500D02*
G03*
X183390Y140500I-3390J0D01*
G01*
Y150500D02*
G03*
X183390Y150500I-3390J0D01*
G01*
X133390Y235000D02*
G03*
X133390Y235000I-3390J0D01*
G01*
Y225000D02*
G03*
X133390Y225000I-3390J0D01*
G01*
X278390Y125000D02*
G03*
X278390Y125000I-3390J0D01*
G01*
X288390D02*
G03*
X288390Y125000I-3390J0D01*
G01*
X103390D02*
G03*
X103390Y125000I-3390J0D01*
G01*
X113390D02*
G03*
X113390Y125000I-3390J0D01*
G01*
D26*
X118000Y21000D02*
D03*
Y9200D02*
D03*
X294000Y81900D02*
D03*
Y70100D02*
D03*
X95000Y264100D02*
D03*
Y275900D02*
D03*
X115000Y264100D02*
D03*
Y275900D02*
D03*
X135000D02*
D03*
Y264100D02*
D03*
X280000Y205900D02*
D03*
Y194100D02*
D03*
X260000Y205900D02*
D03*
Y194100D02*
D03*
X130000Y189100D02*
D03*
Y200900D02*
D03*
X160000D02*
D03*
Y189100D02*
D03*
X145000Y224100D02*
D03*
Y235900D02*
D03*
X300000Y194100D02*
D03*
Y205900D02*
D03*
D27*
X281000Y70000D02*
D03*
X281165Y65000D02*
D03*
Y60000D02*
D03*
Y55000D02*
D03*
Y50000D02*
D03*
Y45000D02*
D03*
Y40000D02*
D03*
X258835D02*
D03*
Y45000D02*
D03*
Y50000D02*
D03*
Y55000D02*
D03*
Y60000D02*
D03*
Y65000D02*
D03*
Y70000D02*
D03*
X106000D02*
D03*
X106165Y65000D02*
D03*
Y60000D02*
D03*
Y55000D02*
D03*
Y50000D02*
D03*
Y45000D02*
D03*
Y40000D02*
D03*
X83835D02*
D03*
Y45000D02*
D03*
Y50000D02*
D03*
Y55000D02*
D03*
Y60000D02*
D03*
Y65000D02*
D03*
Y70000D02*
D03*
D28*
X95900Y243779D02*
D03*
X105000Y242795D02*
D03*
X114100D02*
D03*
D29*
X105000Y217205D02*
D03*
D30*
X219100Y30000D02*
D03*
X230900D02*
D03*
X44100D02*
D03*
X55900D02*
D03*
X205900D02*
D03*
X194100D02*
D03*
X30900D02*
D03*
X19100D02*
D03*
X205900Y55000D02*
D03*
X194100D02*
D03*
X219100D02*
D03*
X230900D02*
D03*
X100900Y95000D02*
D03*
X89100D02*
D03*
X44100Y80000D02*
D03*
X55900D02*
D03*
X44100Y55000D02*
D03*
X55900D02*
D03*
X30900Y80000D02*
D03*
X19100D02*
D03*
X30900Y55000D02*
D03*
X19100D02*
D03*
X205900Y80000D02*
D03*
X194100D02*
D03*
X219100D02*
D03*
X230900D02*
D03*
X275900Y95000D02*
D03*
X264100D02*
D03*
X250900Y227500D02*
D03*
X239100D02*
D03*
D31*
X225630D02*
D03*
Y222500D02*
D03*
Y217500D02*
D03*
Y212500D02*
D03*
X204370D02*
D03*
Y217500D02*
D03*
Y222500D02*
D03*
Y227500D02*
D03*
D32*
X180000Y140500D02*
D03*
Y150500D02*
D03*
X130000Y235000D02*
D03*
Y225000D02*
D03*
X275000Y125000D02*
D03*
X285000D02*
D03*
X100000D02*
D03*
X110000D02*
D03*
D33*
X335000Y60000D02*
D03*
X325000D02*
D03*
X355000D02*
D03*
X345000D02*
D03*
X335000Y95000D02*
D03*
X325000D02*
D03*
X355000D02*
D03*
X345000D02*
D03*
X335000Y25000D02*
D03*
X325000D02*
D03*
X355000D02*
D03*
X345000D02*
D03*
X205000Y110000D02*
D03*
X195000D02*
D03*
X225000D02*
D03*
X215000D02*
D03*
X35000Y190000D02*
D03*
X25000D02*
D03*
X55000D02*
D03*
X45000D02*
D03*
X35000Y225000D02*
D03*
X25000D02*
D03*
X55000D02*
D03*
X45000D02*
D03*
X202000Y185000D02*
D03*
X192000D02*
D03*
X222000D02*
D03*
X212000D02*
D03*
X30000Y110000D02*
D03*
X20000D02*
D03*
X50000D02*
D03*
X40000D02*
D03*
X150000Y95000D02*
D03*
X140000D02*
D03*
X170000D02*
D03*
X160000D02*
D03*
X150000Y60000D02*
D03*
X140000D02*
D03*
X170000D02*
D03*
X160000D02*
D03*
X150000Y25000D02*
D03*
X140000D02*
D03*
X170000D02*
D03*
X160000D02*
D03*
D34*
X58622Y270000D02*
D03*
X35000D02*
D03*
D35*
X48779Y251693D02*
D03*
D36*
X100000Y190000D02*
D03*
X90000D02*
D03*
X80000D02*
D03*
D37*
X125000Y68000D02*
D03*
X181000Y72000D02*
D03*
X133000D02*
D03*
X99000Y45000D02*
D03*
X91750Y50000D02*
D03*
X180000Y164000D02*
D03*
Y174000D02*
D03*
X66000Y63000D02*
D03*
X192500Y227500D02*
D03*
X194000Y207000D02*
D03*
X186000D02*
D03*
X81000Y153000D02*
D03*
X100000D02*
D03*
X66000Y52000D02*
D03*
Y58000D02*
D03*
Y80000D02*
D03*
X12000Y149000D02*
D03*
X248000Y36000D02*
D03*
X304000Y68000D02*
D03*
Y82000D02*
D03*
X300000Y187500D02*
D03*
X185000Y30000D02*
D03*
Y55000D02*
D03*
Y80000D02*
D03*
X257500Y227500D02*
D03*
X160000Y182500D02*
D03*
X135000Y257500D02*
D03*
X95000D02*
D03*
X145000Y217500D02*
D03*
X114000Y250000D02*
D03*
M02*
