M48
;Layer_Color=9474304
;FILE_FORMAT=2:5
INCH,LZ
;TYPE=PLATED
T01F00S00C0.01300
T03F00S00C0.04000
T04F00S00C0.04016
T05F00S00C0.04331
%
T01
X0066Y0052
X009175Y005
X0099Y0045
X0185Y0055
Y003
X0248Y0036
X0304Y0068
Y0082
X03Y01875
X0194Y0207
X0186
X018Y0174
Y0164
X016Y01825
X01Y0153
X0081
X0066Y008
Y0063
Y0058
X0125Y0068
X0133Y0072
X0181
X0185Y008
X0012Y0149
X0095Y02575
X0114Y025
X0135Y02575
X0145Y02175
X01925Y02275
X02575
T03
X014Y0025
X015
X016
X017
X0325
X0335
X0345
X0355
Y006
X0345
X0335
X0325
Y0095
X0335
X0345
X0355
X0225Y011
X0215
X0222Y0185
X0212
X0202
X0192
X0195Y011
X0205
X017Y0095
X016
X015
X014
Y006
X015
X016
X017
X005Y011
X004
X003
X002
X0025Y019
X0035
X0045
X0055
Y0225
X0045
X0035
X0025
T04
X0275Y0125
X0285
X018Y01405
Y01505
X011Y0125
X01
X013Y0225
Y0235
T05
X008Y019
X009
X01
M30
